<mxfile host="app.diagrams.net" modified="2024-04-01T07:53:24.716Z" agent="Mozilla/5.0 (Windows NT 10.0; Win64; x64) AppleWebKit/537.36 (KHTML, like Gecko) Chrome/123.0.0.0 Safari/537.36 Edg/123.0.0.0" etag="E1zZG_nT9Hev1xaEzCaD" version="24.2.1" type="github">
  <diagram name="第 1 页" id="-favfwk0_6Bgqh363WiU">
    <mxGraphModel dx="779" dy="448" grid="1" gridSize="10" guides="1" tooltips="1" connect="1" arrows="1" fold="1" page="1" pageScale="1" pageWidth="827" pageHeight="1169" math="1" shadow="0">
      <root>
        <mxCell id="0" />
        <mxCell id="1" parent="0" />
        <mxCell id="jHQ71wUGAKdWTWvxTBNR-1" value="$$D^1_{\text{train}}$$" style="rounded=0;whiteSpace=wrap;html=1;fillColor=#dae8fc;strokeColor=#6c8ebf;" vertex="1" parent="1">
          <mxGeometry x="120" y="440" width="80" height="40" as="geometry" />
        </mxCell>
        <mxCell id="jHQ71wUGAKdWTWvxTBNR-2" value="$$D^1_{\text{test}}$$" style="rounded=0;whiteSpace=wrap;html=1;fillColor=#d5e8d4;strokeColor=#82b366;" vertex="1" parent="1">
          <mxGeometry x="200" y="440" width="80" height="40" as="geometry" />
        </mxCell>
        <mxCell id="jHQ71wUGAKdWTWvxTBNR-13" value="$$D^2_{\text{train}}$$" style="rounded=0;whiteSpace=wrap;html=1;fillColor=#dae8fc;strokeColor=#6c8ebf;" vertex="1" parent="1">
          <mxGeometry x="160" y="490" width="80" height="40" as="geometry" />
        </mxCell>
        <mxCell id="jHQ71wUGAKdWTWvxTBNR-14" value="$$D^2_{\text{test}}$$" style="rounded=0;whiteSpace=wrap;html=1;fillColor=#d5e8d4;strokeColor=#82b366;" vertex="1" parent="1">
          <mxGeometry x="240" y="490" width="80" height="40" as="geometry" />
        </mxCell>
        <mxCell id="jHQ71wUGAKdWTWvxTBNR-15" value="$$D^3_{\text{train}}$$" style="rounded=0;whiteSpace=wrap;html=1;fillColor=#dae8fc;strokeColor=#6c8ebf;" vertex="1" parent="1">
          <mxGeometry x="200" y="540" width="80" height="40" as="geometry" />
        </mxCell>
        <mxCell id="jHQ71wUGAKdWTWvxTBNR-16" value="$$D^3_{\text{test}}$$" style="rounded=0;whiteSpace=wrap;html=1;fillColor=#d5e8d4;strokeColor=#82b366;" vertex="1" parent="1">
          <mxGeometry x="280" y="540" width="80" height="40" as="geometry" />
        </mxCell>
        <mxCell id="jHQ71wUGAKdWTWvxTBNR-17" value="$$D^3_{\text{train}}$$" style="rounded=0;whiteSpace=wrap;html=1;fillColor=#dae8fc;strokeColor=#6c8ebf;" vertex="1" parent="1">
          <mxGeometry x="380" y="600" width="80" height="40" as="geometry" />
        </mxCell>
        <mxCell id="jHQ71wUGAKdWTWvxTBNR-18" value="$$D^3_{\text{test}}$$" style="rounded=0;whiteSpace=wrap;html=1;fillColor=#d5e8d4;strokeColor=#82b366;" vertex="1" parent="1">
          <mxGeometry x="460" y="600" width="80" height="40" as="geometry" />
        </mxCell>
        <mxCell id="jHQ71wUGAKdWTWvxTBNR-19" value="$$\ddots$$" style="text;html=1;align=center;verticalAlign=middle;resizable=0;points=[];autosize=1;strokeColor=none;fillColor=none;" vertex="1" parent="1">
          <mxGeometry x="330" y="570" width="80" height="30" as="geometry" />
        </mxCell>
        <mxCell id="jHQ71wUGAKdWTWvxTBNR-20" value="" style="endArrow=classic;html=1;rounded=0;" edge="1" parent="1">
          <mxGeometry width="50" height="50" relative="1" as="geometry">
            <mxPoint x="120" y="680" as="sourcePoint" />
            <mxPoint x="560" y="680" as="targetPoint" />
          </mxGeometry>
        </mxCell>
        <mxCell id="jHQ71wUGAKdWTWvxTBNR-21" value="&lt;font style=&quot;font-size: 14px;&quot; face=&quot;Times New Roman&quot;&gt;time&lt;/font&gt;" style="text;html=1;align=center;verticalAlign=middle;resizable=0;points=[];autosize=1;strokeColor=none;fillColor=none;" vertex="1" parent="1">
          <mxGeometry x="525" y="678" width="50" height="30" as="geometry" />
        </mxCell>
        <mxCell id="jHQ71wUGAKdWTWvxTBNR-22" value="&lt;font style=&quot;font-size: 14px;&quot; face=&quot;Times New Roman&quot;&gt;1-st task&lt;/font&gt;" style="text;html=1;align=center;verticalAlign=middle;resizable=0;points=[];autosize=1;strokeColor=none;fillColor=none;" vertex="1" parent="1">
          <mxGeometry x="45" y="445" width="70" height="30" as="geometry" />
        </mxCell>
        <mxCell id="jHQ71wUGAKdWTWvxTBNR-23" value="&lt;font style=&quot;font-size: 14px;&quot; face=&quot;Times New Roman&quot;&gt;2-nd task&lt;/font&gt;" style="text;html=1;align=center;verticalAlign=middle;resizable=0;points=[];autosize=1;strokeColor=none;fillColor=none;" vertex="1" parent="1">
          <mxGeometry x="40" y="495" width="80" height="30" as="geometry" />
        </mxCell>
        <mxCell id="jHQ71wUGAKdWTWvxTBNR-24" value="&lt;font style=&quot;font-size: 14px;&quot; face=&quot;Times New Roman&quot;&gt;3-rd task&lt;/font&gt;" style="text;html=1;align=center;verticalAlign=middle;resizable=0;points=[];autosize=1;strokeColor=none;fillColor=none;" vertex="1" parent="1">
          <mxGeometry x="45" y="545" width="70" height="30" as="geometry" />
        </mxCell>
        <mxCell id="jHQ71wUGAKdWTWvxTBNR-25" value="$$\vdots$$" style="text;html=1;align=center;verticalAlign=middle;resizable=0;points=[];autosize=1;strokeColor=none;fillColor=none;" vertex="1" parent="1">
          <mxGeometry x="40" y="580" width="80" height="30" as="geometry" />
        </mxCell>
        <mxCell id="jHQ71wUGAKdWTWvxTBNR-26" value="&lt;font style=&quot;font-size: 14px;&quot; face=&quot;Times New Roman&quot;&gt;\(k\)-th task&lt;/font&gt;" style="text;html=1;align=center;verticalAlign=middle;resizable=0;points=[];autosize=1;strokeColor=none;fillColor=none;" vertex="1" parent="1">
          <mxGeometry x="35" y="620" width="90" height="30" as="geometry" />
        </mxCell>
        <mxCell id="jHQ71wUGAKdWTWvxTBNR-27" value="" style="endArrow=none;html=1;rounded=0;exitX=0;exitY=0;exitDx=0;exitDy=0;" edge="1" parent="1" source="jHQ71wUGAKdWTWvxTBNR-1">
          <mxGeometry width="50" height="50" relative="1" as="geometry">
            <mxPoint x="290" y="400" as="sourcePoint" />
            <mxPoint x="120" y="420" as="targetPoint" />
          </mxGeometry>
        </mxCell>
        <mxCell id="jHQ71wUGAKdWTWvxTBNR-28" value="" style="endArrow=classic;html=1;rounded=0;" edge="1" parent="1">
          <mxGeometry width="50" height="50" relative="1" as="geometry">
            <mxPoint x="140" y="430" as="sourcePoint" />
            <mxPoint x="120" y="430" as="targetPoint" />
          </mxGeometry>
        </mxCell>
        <mxCell id="jHQ71wUGAKdWTWvxTBNR-29" value="$$r$$" style="text;html=1;align=center;verticalAlign=middle;resizable=0;points=[];autosize=1;strokeColor=none;fillColor=none;" vertex="1" parent="1">
          <mxGeometry x="135" y="410" width="50" height="30" as="geometry" />
        </mxCell>
        <mxCell id="jHQ71wUGAKdWTWvxTBNR-30" value="" style="endArrow=classic;html=1;rounded=0;" edge="1" parent="1">
          <mxGeometry width="50" height="50" relative="1" as="geometry">
            <mxPoint x="180" y="430" as="sourcePoint" />
            <mxPoint x="200" y="430" as="targetPoint" />
          </mxGeometry>
        </mxCell>
        <mxCell id="jHQ71wUGAKdWTWvxTBNR-31" value="" style="endArrow=none;html=1;rounded=0;exitX=0;exitY=0;exitDx=0;exitDy=0;" edge="1" parent="1">
          <mxGeometry width="50" height="50" relative="1" as="geometry">
            <mxPoint x="199.84" y="440" as="sourcePoint" />
            <mxPoint x="199.84" y="420" as="targetPoint" />
          </mxGeometry>
        </mxCell>
        <mxCell id="jHQ71wUGAKdWTWvxTBNR-32" value="" style="endArrow=classic;html=1;rounded=0;" edge="1" parent="1">
          <mxGeometry width="50" height="50" relative="1" as="geometry">
            <mxPoint x="220" y="430" as="sourcePoint" />
            <mxPoint x="200" y="430" as="targetPoint" />
          </mxGeometry>
        </mxCell>
        <mxCell id="jHQ71wUGAKdWTWvxTBNR-33" value="$$r$$" style="text;html=1;align=center;verticalAlign=middle;resizable=0;points=[];autosize=1;strokeColor=none;fillColor=none;" vertex="1" parent="1">
          <mxGeometry x="215" y="410" width="50" height="30" as="geometry" />
        </mxCell>
        <mxCell id="jHQ71wUGAKdWTWvxTBNR-34" value="" style="endArrow=classic;html=1;rounded=0;" edge="1" parent="1">
          <mxGeometry width="50" height="50" relative="1" as="geometry">
            <mxPoint x="260" y="430" as="sourcePoint" />
            <mxPoint x="280" y="430" as="targetPoint" />
          </mxGeometry>
        </mxCell>
        <mxCell id="jHQ71wUGAKdWTWvxTBNR-35" value="" style="endArrow=none;html=1;rounded=0;exitX=0;exitY=0;exitDx=0;exitDy=0;" edge="1" parent="1">
          <mxGeometry width="50" height="50" relative="1" as="geometry">
            <mxPoint x="279.84000000000003" y="440" as="sourcePoint" />
            <mxPoint x="279.84000000000003" y="420" as="targetPoint" />
          </mxGeometry>
        </mxCell>
      </root>
    </mxGraphModel>
  </diagram>
</mxfile>
